<?xml version="1.0" encoding="UTF-8"?>
<!DOCTYPE svg PUBLIC "-//W3C//DTD SVG 1.1//EN" "http://www.w3.org/Graphics/SVG/1.1/DTD/svg11.dtd">
<svg xmlns="http://www.w3.org/2000/svg" version="1.1" width="500px" height="500px" style="shape-rendering:geometricPrecision; text-rendering:geometricPrecision; image-rendering:optimizeQuality; fill-rule:evenodd; clip-rule:evenodd" xmlns:xlink="http://www.w3.org/1999/xlink">
<g><path style="opacity:1" fill="#03763e" d="M 229.5,-0.5 C 243.167,-0.5 256.833,-0.5 270.5,-0.5C 368.265,11.7771 438.098,62.4438 480,151.5C 490.297,176.687 496.797,202.687 499.5,229.5C 499.5,242.833 499.5,256.167 499.5,269.5C 487.689,367.799 437.022,437.966 347.5,480C 322.313,490.297 296.313,496.797 269.5,499.5C 256.167,499.5 242.833,499.5 229.5,499.5C 131.201,487.689 61.0341,437.022 19,347.5C 8.70332,322.313 2.20332,296.313 -0.5,269.5C -0.5,256.167 -0.5,242.833 -0.5,229.5C 11.3112,131.201 61.9779,61.0341 151.5,19C 176.687,8.70332 202.687,2.20332 229.5,-0.5 Z"/></g>
<g><path style="opacity:1" fill="#defdb8" d="M 157.5,61.5 C 160.821,62.4955 164.154,63.4955 167.5,64.5C 167.821,70.9629 169.654,76.9629 173,82.5C 184.665,98.4883 195.331,115.155 205,132.5C 215.818,156.699 211.318,177.532 191.5,195C 178.219,205.632 163.552,213.632 147.5,219C 146.484,217.323 145.484,215.657 144.5,214C 153.913,206.592 162.747,198.425 171,189.5C 180.511,176.39 180.845,163.057 172,149.5C 167.336,142.672 161.836,136.672 155.5,131.5C 147.729,154.569 140.562,177.902 134,201.5C 124.361,231.903 104.195,242.736 73.5,234C 58.2512,221.823 57.5845,208.823 71.5,195C 86.733,184.854 103.4,181.688 121.5,185.5C 132.896,143.981 144.896,102.648 157.5,61.5 Z"/></g>
<g><path style="opacity:1" fill="#e0feb9" d="M 186.5,367.5 C 174.604,366.349 162.604,365.183 150.5,364C 162.042,367.145 173.708,369.645 185.5,371.5C 234.013,380.818 281.68,377.652 328.5,362C 370.178,344.66 403.011,316.827 427,278.5C 442.793,252.485 455.126,224.818 464,195.5C 466.207,191.215 467.374,191.548 467.5,196.5C 463.601,241.935 451.101,284.602 430,324.5C 390.262,389.967 331.762,421.967 254.5,420.5C 237.681,420.813 221.014,419.48 204.5,416.5C 202.095,415.232 199.428,414.565 196.5,414.5C 151.129,404.978 109.129,387.478 70.5,362C 63.4449,357.297 62.7782,351.964 68.5,346C 86.8649,337.152 103.532,325.819 118.5,312C 141.02,289.314 163.02,266.147 184.5,242.5C 198.875,227.286 214.875,214.119 232.5,203C 260.185,186.665 289.852,181.665 321.5,188C 358.207,197.187 391.207,213.521 420.5,237C 394.414,281.086 359.08,315.753 314.5,341C 274.417,361.514 231.75,370.348 186.5,367.5 Z"/></g>
<g><path style="opacity:1" fill="#3d9559" d="M 186.5,367.5 C 177.567,367.448 177.234,368.782 185.5,371.5C 173.708,369.645 162.042,367.145 150.5,364C 162.604,365.183 174.604,366.349 186.5,367.5 Z"/></g>
<g><path style="opacity:1" fill="#58a86b" d="M 196.5,414.5 C 199.428,414.565 202.095,415.232 204.5,416.5C 201.447,416.889 198.78,416.223 196.5,414.5 Z"/></g>
</svg>
